<svg xmlns="http://www.w3.org/2000/svg" viewBox="0 0 64 64" width="64" height="64"><title>Ozituma</title><rect width="64" height="64" rx="14" fill="#1E1B16"/><g transform="translate(32.0 32.0) scale(0.6200) "><circle r="40" fill="none" stroke="#C8792B" stroke-width="7"/><path d="M-16.9 36.3L-43 43L-36.3 16.9Z" fill="#C8792B" stroke="#C8792B" stroke-width="3" stroke-linejoin="round"/><g transform="translate(0 -9)"><path fill="#F6EEDD" fill-rule="evenodd" stroke="#F6EEDD" stroke-width="1.2" stroke-linejoin="round" d="M-2.5 17C-8 16.5 -18 16 -27 17L-27 -9C-18 -11 -8 -8.5 -2.5 -3Z"/><path fill="#F6EEDD" fill-rule="evenodd" stroke="#F6EEDD" stroke-width="1.2" stroke-linejoin="round" transform="scale(-1 1)" d="M-2.5 17C-8 16.5 -18 16 -27 17L-27 -9C-18 -11 -8 -8.5 -2.5 -3Z"/><path fill="#C8792B" fill-rule="evenodd" d="M-21.5 18.5H21.5A5.5 5.5 0 0 1 21.5 29.5H-21.5A5.5 5.5 0 0 1 -21.5 18.5ZM-17 22.9H17A1.1 1.1 0 0 1 17 25.1H-17A1.1 1.1 0 0 1 -17 22.9Z"/></g></g></svg>